<svg xmlns="http://www.w3.org/2000/svg" viewBox="0 0 413.71 430.45"><defs><style>.cls-1{fill:#1b1b1e;}.cls-2{fill:#96031a;}</style></defs><title>centurion-partners-holding-gmbh-logo</title><g id="Ebene_2" data-name="Ebene 2"><g id="Logo"><path class="cls-1" d="M38.88,388.44a9,9,0,0,0-2.59-.36,112.53,112.53,0,0,1-11.45,1C11.09,389.08,0,379.65,0,362.87c0-17.49,12.6-26.21,24.84-26.21,4.54,0,10.3.87,11.45.87a7.68,7.68,0,0,0,2.59-.43l2.81,14.83-2.16.65c-1.44-4.61-7.63-5.4-11.74-5.4-7.48,0-14.4,4.6-14.4,15.77S20.81,378.21,28,378.21c6.12,0,10.15-1.37,11.74-6.26l2.23.64Z"/><path class="cls-1" d="M81.94,388.94a17.43,17.43,0,0,0-4.75-.79h-31v-1.59c2,0,2.88-1.29,2.88-3.74V343c0-2.16-1.22-3.74-2.88-3.74v-1.52H77.69a29.45,29.45,0,0,0,4.1-.5l2.52,12.82-1.51.5c-1.22-2.16-2.09-2.66-4.53-2.66H62v8.71H76.83c1.58,0,2.44-.58,2.44-2.16h1.66v14.62H79.27c0-1.52-.86-2.09-2.44-2.09H62v10.8H78.48c2.67,0,3.53-.72,4.68-3.17l1.73.58Z"/><path class="cls-1" d="M133.92,343.29v44.86h-11.3a11.25,11.25,0,0,0-1.66-4.54l-17.42-27.79h-.29v26.64c0,3,.86,4.1,2.81,4.1v1.59H88.92v-1.59c1.94,0,2.88-1.08,2.88-4.1V342.93c0-2.16-1.22-3.6-2.88-3.6v-1.59h18.36a12.32,12.32,0,0,0,2,4.61L122.11,363h.29V343c0-2.74-.86-3.67-2.88-3.67v-1.59h17.21v1.59C134.79,339.33,133.92,340.26,133.92,343.29Z"/><path class="cls-1" d="M184,351c-.57-1.87-1.65-3.09-3.24-3.09H169.56v34.42c0,3,.86,4.24,2.81,4.24v1.59H153.72v-1.59c1.95,0,2.88-1.22,2.88-4.24V347.9H145.66c-1.59,0-2.81,1.15-3.46,3.09l-2-.65,2.67-13a10.92,10.92,0,0,0,3.67.43h33.77a10.08,10.08,0,0,0,3-.43l2.67,13Z"/><path class="cls-1" d="M233.71,343.36v29.38c0,3,.22,6.12.87,7.06-5.83,6.48-11,10-21,10-9.79,0-16.56-3.38-22.39-10,.65-.94.86-3.46.86-7.06v-29.6c0-3-1.08-3.81-2.88-3.81v-1.59h18.73v1.59c-1.95,0-2.88.79-2.88,3.81V371.8c0,5.26,3.81,7.35,8.78,7.35,4.47,0,7.56-2.67,7.56-7.2V343.14c0-3-.86-3.81-2.81-3.81v-1.59h17.93v1.59C234.58,339.33,233.71,340.34,233.71,343.36Z"/><path class="cls-1" d="M269,388.15c-2-3.53-4-10.37-5.11-15.34-.79.07-2.16.14-3.53.14s-2.52-.07-3.53-.14v9.79c0,3,.94,4,2.88,4v1.59H241v-1.59c1.8,0,2.88-.93,2.88-4V342.93c0-2.16-1-3.6-2.88-3.6v-1.59c3.31-.14,10.66-.64,18-.64,14.84,0,26.5,2.66,26.5,17.49a16.39,16.39,0,0,1-10.3,15.05,56.42,56.42,0,0,0,7,15,3.74,3.74,0,0,0,3.6,1.94v1.59Zm-8.28-40.69c-1.51,0-2.95.08-3.89.15v15.26a41.32,41.32,0,0,0,4.25.22c7.63,0,11.16-2.45,11.16-8C272.23,350,268.7,347.46,260.71,347.46Z"/><path class="cls-1" d="M289.8,388.15v-1.59c1.87,0,2.88-1.08,2.88-4.1V342.93c0-2.16-1.23-3.6-2.88-3.6v-1.59h18.72v1.59c-1.73,0-2.88.93-2.88,4v39.17c0,3,.94,4.1,2.88,4.1v1.59Z"/><path class="cls-1" d="M337.17,389.8c-15.4,0-24.33-11.66-24.33-27,0-16.92,10.8-26.71,24.33-26.71s24.41,9.86,24.41,26.71C361.58,378.28,352.66,389.8,337.17,389.8Zm-.07-43c-5.9,0-10.87,5.25-10.87,16,0,10.51,4.32,16.35,10.87,16.35,6.84,0,10.95-5.91,10.95-16.28C348.05,351.35,342.94,346.82,337.1,346.82Z"/><path class="cls-1" d="M410.9,343.29v44.86H399.6a11.25,11.25,0,0,0-1.66-4.54l-17.42-27.79h-.29v26.64c0,3,.86,4.1,2.81,4.1v1.59H365.9v-1.59c1.94,0,2.88-1.08,2.88-4.1V342.93c0-2.16-1.22-3.6-2.88-3.6v-1.59h18.36a12.32,12.32,0,0,0,2,4.61L399.09,363h.29V343c0-2.74-.86-3.67-2.88-3.67v-1.59h17.21v1.59C411.77,339.33,410.9,340.26,410.9,343.29Z"/><path class="cls-1" d="M282.13,154.66l22.61-2c3.46-.31,5.23,3.18,5.95,5.16a1.79,1.79,0,0,0,1.86,1.19,1.81,1.81,0,0,0,1.65-2l-.46-5.19a105,105,0,1,0-209.23,18c0,.18,0,.36.06.53h0l4.93,55.81a6.89,6.89,0,0,1-2.5,6l-8.23,6.75s-20.67,16.69-20.89,16.83a1.77,1.77,0,0,0,1.21,3.23l50.37-4.45a35,35,0,0,0,31.78-38l-.42-4.69-4.07-46.11a34.7,34.7,0,0,1,2.41-16.2c.42-1,.89-2.07,1.41-3.07q.58-1.12,1.26-2.19h0c.3-.48.6-1,.92-1.41a35.08,35.08,0,0,1,13.21-11.51l1.34-.64a34.89,34.89,0,0,1,11.23-2.91c.82-.08,1.65-.12,2.5-.13a35,35,0,0,1,29.2,14.9,34.31,34.31,0,0,1,6,15.21,35,35,0,0,1-17.61,35.46,15.45,15.45,0,0,0-8,11.62,14.08,14.08,0,0,0,0,2.68c.78,8.87,7.29,34.5,19.86,57.42,1.19,2.15,2.43,4.29,3.72,6.38.43.7.86,1.39,1.31,2.08,1.32,2.07,2.71,4.08,4.14,6,.48.65,1,1.29,1.46,1.93s1,1.27,1.49,1.9,1,1.24,1.53,1.83h0c.52.61,1,1.21,1.56,1.79s1.06,1.16,1.6,1.73c1.62,1.7,3.3,3.32,5,4.83.57.5,1.16,1,1.75,1.48s1.17,1,1.78,1.39a47.57,47.57,0,0,0,18.79,8.92c.72.16,1.45.3,2.18.41A41,41,0,0,0,277,306c.67-.06,1.34-.14,2-.23s1.35-.2,2-.32c1-.18,2.06-.4,3.11-.66a56.55,56.55,0,0,0,9.71-3.42c24.66-11.17,17.35-24.95,12.12-31.74-11.63-15.12-1.53-30.64,7.68-48.52,4.55-8.81,3.81-24.17,2.71-36.56a6.08,6.08,0,0,0-3.94-5.61c-8.81-3.7-29.44,4-33.51-20.28A3.47,3.47,0,0,1,282.13,154.66Zm.63,33.69a.52.52,0,0,1,.55.49.53.53,0,0,1-.38.57l-33.82,11.14a3.58,3.58,0,0,0-2.57,3.64c.88,14.92,7.71,80.86,44.58,79.63h.15a.53.53,0,0,1,.48.49.57.57,0,0,1-.4.58c-41.16,16.18-54.33-68.7-56.71-87.41a3.57,3.57,0,0,1,3.14-4Z"/><path class="cls-2" d="M343.77,54.76,297.64,87.12a1.75,1.75,0,0,1-2.34-.31A112,112,0,0,0,97.72,162.45l-.17,0,.5,5.82,2.22,25.1a1.75,1.75,0,0,1-1.15,1.8l-23.94,8.69a1.74,1.74,0,0,1-2.34-1.49l-2.74-31a157.51,157.51,0,0,1,274-119.23A1.75,1.75,0,0,1,343.77,54.76Z"/><circle class="cls-2" cx="192.21" cy="161.13" r="23.35"/><path class="cls-2" d="M19.39,416.62c0,4.62-3.42,7.47-8.94,7.47H5.71v6.06H1.81v-21h8.64C16,409.15,19.39,412,19.39,416.62Zm-3.93,0c0-2.64-1.77-4.17-5.19-4.17H5.71v8.34h4.56C13.69,420.79,15.46,419.26,15.46,416.62Z"/><path class="cls-2" d="M35,425.29H24.46l-2.07,4.86h-4l9.45-21h3.84l9.48,21H37.06Zm-1.29-3.06-4-9.18-3.93,9.18Z"/><path class="cls-2" d="M56.65,430.15,52.36,424a7.31,7.31,0,0,1-.81,0H46.81v6.12h-3.9v-21h8.64c5.52,0,8.94,2.82,8.94,7.47A6.71,6.71,0,0,1,56,423.25l4.83,6.9Zm-5.28-17.7H46.81v8.37h4.56c3.42,0,5.19-1.56,5.19-4.2S54.79,412.45,51.37,412.45Z"/><path class="cls-2" d="M67.9,412.45h-7v-3.3H78.76v3.3h-7v17.7H67.9Z"/><path class="cls-2" d="M99.46,409.15v21H96.25L84.67,415.93v14.22H80.8v-21H84l11.58,14.22V409.15Z"/><path class="cls-2" d="M120,426.88v3.27H104.2v-21h15.33v3.27H108.1v5.46h10.14v3.21H108.1v5.79Z"/><path class="cls-2" d="M137.14,430.15,132.85,424a7.31,7.31,0,0,1-.81,0H127.3v6.12h-3.9v-21H132c5.52,0,8.94,2.82,8.94,7.47a6.71,6.71,0,0,1-4.47,6.63l4.83,6.9Zm-5.28-17.7H127.3v8.37h4.56c3.42,0,5.19-1.56,5.19-4.2S135.28,412.45,131.86,412.45Z"/><path class="cls-2" d="M142.66,427.93l1.35-3a11.64,11.64,0,0,0,6.93,2.31c3.27,0,4.65-1.17,4.65-2.73,0-4.53-12.48-1.56-12.48-9.36,0-3.39,2.7-6.27,8.46-6.27a13.28,13.28,0,0,1,7,1.86l-1.23,3a11.67,11.67,0,0,0-5.79-1.65c-3.24,0-4.56,1.26-4.56,2.85,0,4.47,12.45,1.56,12.45,9.27,0,3.36-2.73,6.24-8.49,6.24C147.67,430.45,144.4,429.43,142.66,427.93Z"/><path class="cls-2" d="M188.44,409.15v21h-3.9v-9H173.68v9h-3.9v-21h3.9v8.67h10.86v-8.67Z"/><path class="cls-2" d="M191.68,419.65c0-6.21,4.8-10.8,11.31-10.8s11.31,4.56,11.31,10.8-4.8,10.8-11.31,10.8S191.68,425.86,191.68,419.65Zm18.69,0A7.38,7.38,0,1,0,203,427,7.16,7.16,0,0,0,210.37,419.65Z"/><path class="cls-2" d="M217.54,409.15h3.9v17.7h11v3.3H217.54Z"/><path class="cls-2" d="M234.61,409.15h9.18c6.81,0,11.46,4.2,11.46,10.5s-4.65,10.5-11.46,10.5h-9.18Zm9,17.7c4.68,0,7.71-2.85,7.71-7.2s-3-7.2-7.71-7.2h-5.1v14.4Z"/><path class="cls-2" d="M258.49,409.15h3.9v21h-3.9Z"/><path class="cls-2" d="M285.82,409.15v21h-3.21L271,415.93v14.22h-3.87v-21h3.21L282,423.37V409.15Z"/><path class="cls-2" d="M304.9,419.41h3.69v8.37a13.3,13.3,0,0,1-8.22,2.67c-6.51,0-11.31-4.53-11.31-10.8s4.8-10.8,11.37-10.8a10.81,10.81,0,0,1,8.42,3.42l-2.45,2.4a7.82,7.82,0,0,0-5.8-2.4c-4.46,0-7.61,3-7.61,7.38a7.23,7.23,0,0,0,7.59,7.38A8.48,8.48,0,0,0,304.9,426Z"/><path class="cls-2" d="M334.53,419.41h3.7v8.37a13.32,13.32,0,0,1-8.22,2.67c-6.51,0-11.31-4.53-11.31-10.8s4.8-10.8,11.37-10.8a10.85,10.85,0,0,1,8.43,3.42l-2.47,2.4a7.76,7.76,0,0,0-5.78-2.4c-4.48,0-7.62,3-7.62,7.38a7.22,7.22,0,0,0,7.59,7.38,8.42,8.42,0,0,0,4.31-1.08Z"/><path class="cls-2" d="M361.75,430.15l0-13.92-6.89,11.52h-1.74l-6.9-11.34v13.74h-3.72v-21h3.21L354,423.07l8.18-13.92h3.21l0,21Z"/><path class="cls-2" d="M388.86,424.45c0,3.6-2.82,5.7-8.22,5.7H370.2v-21H380c5,0,7.74,2.13,7.74,5.46a5,5,0,0,1-2.7,4.62A5.17,5.17,0,0,1,388.86,424.45ZM374.1,412.21V418h5.52c2.7,0,4.23-1,4.23-2.88s-1.53-2.91-4.23-2.91Zm10.83,11.85c0-2.1-1.59-3-4.53-3h-6.3v6.06h6.3C383.34,427.09,384.93,426.16,384.93,424.06Z"/><path class="cls-2" d="M410.79,409.15v21h-3.9v-9H396v9h-3.9v-21H396v8.67h10.86v-8.67Z"/></g></g></svg>